<?xml version="1.0" standalone="no"?>
<!DOCTYPE svg PUBLIC "-//W3C//DTD SVG 20010904//EN"
 "http://www.w3.org/TR/2001/REC-SVG-20010904/DTD/svg10.dtd">
<svg version="1.0" xmlns="http://www.w3.org/2000/svg"
 width="294.000000pt" height="171.000000pt" viewBox="0 0 294.000000 171.000000"
 preserveAspectRatio="xMidYMid meet">
<metadata>
Created by potrace 1.16, written by Peter Selinger 2001-2019
</metadata>
<g transform="translate(0.000000,171.000000) scale(0.100000,-0.100000)"
fill="#000000" stroke="none">
<path d="M1395 1483 c-153 -24 -262 -79 -371 -188 -127 -126 -184 -262 -184
-440 0 -178 57 -314 184 -440 132 -132 267 -188 446 -188 179 0 314 56 446
188 127 126 184 262 184 440 0 178 -57 314 -184 440 -89 89 -178 142 -283 169
-66 17 -189 27 -238 19z m193 -39 c222 -45 410 -222 466 -440 20 -79 20 -219
0 -298 -56 -218 -244 -395 -466 -440 -97 -20 -139 -20 -236 0 -222 45 -410
222 -466 440 -20 79 -20 219 0 298 55 214 243 394 459 440 92 19 150 19 243 0z"/>
<path d="M1355 1424 c-120 -29 -241 -99 -315 -181 -277 -311 -154 -789 240
-934 56 -21 83 -24 190 -24 107 0 134 3 190 24 91 34 181 93 240 158 275 310
156 783 -235 933 -47 18 -84 24 -175 26 -63 2 -124 1 -135 -2z m244 -19 c146
-35 301 -153 367 -280 56 -106 56 -105 -23 -105 l-68 0 -20 41 c-64 134 -224
229 -385 229 -161 0 -321 -95 -385 -229 l-20 -41 -68 0 c-66 0 -68 1 -62 23
19 59 76 148 135 207 141 142 339 199 529 155z m-14 -147 c91 -23 199 -108
254 -200 l23 -38 -392 0 -392 0 23 38 c38 64 121 141 184 172 96 47 189 56
300 28z m442 -295 c10 -51 10 -157 0 -215 l-8 -48 -549 0 -549 0 -8 48 c-11
64 -7 212 5 224 7 7 24 -16 52 -72 35 -70 41 -91 38 -132 l-3 -48 43 0 42 0 0
55 c0 45 7 70 37 128 21 39 39 75 41 80 2 4 -14 7 -35 7 -36 0 -39 -3 -59 -48
l-22 -47 -21 47 c-21 45 -23 47 -69 51 -26 2 201 4 505 5 l552 2 8 -37z m-933
-332 c81 -133 220 -211 376 -211 156 0 295 78 376 211 l35 59 59 0 c32 0 61
-4 64 -9 13 -21 -69 -157 -133 -221 -227 -226 -575 -226 -802 0 -64 64 -146
200 -133 221 3 5 32 9 64 9 l59 0 35 -59z m756 49 c0 -44 -124 -169 -203 -205
-155 -71 -336 -42 -458 72 -50 47 -99 112 -99 133 0 7 128 10 380 10 252 0
380 -3 380 -10z"/>
<path d="M1210 969 c0 -20 -43 -200 -56 -233 -5 -13 1 -16 34 -16 37 0 41 3
44 28 3 23 8 27 40 30 29 3 38 -1 43 -17 3 -12 3 -25 0 -31 -4 -6 13 -10 45
-10 45 0 50 2 41 18 -13 25 -61 206 -61 231 0 19 -5 21 -65 21 -59 0 -65 -2
-65 -21z"/>
<path d="M1435 855 l0 -135 35 0 35 0 -3 78 c-5 89 2 87 43 -12 l28 -68 34 78
33 79 -2 -78 -3 -77 40 0 40 0 0 135 0 135 -45 0 c-46 0 -46 0 -65 -51 -11
-28 -23 -53 -27 -55 -3 -2 -16 21 -29 51 l-23 55 -45 0 -46 0 0 -135z"/>
<path d="M1785 855 l0 -136 83 3 c83 3 84 3 97 34 l13 31 -57 -1 c-50 -1 -56
1 -56 19 0 15 7 20 28 20 24 -1 27 3 27 35 0 32 -3 36 -27 35 -18 0 -28 5 -28
15 0 12 12 15 51 14 l51 -2 -10 34 -10 34 -81 0 -81 0 0 -135z"/>
</g>
</svg>
