<?xml version="1.0" standalone="no"?>
<!DOCTYPE svg PUBLIC "-//W3C//DTD SVG 20010904//EN"
 "http://www.w3.org/TR/2001/REC-SVG-20010904/DTD/svg10.dtd">
<svg version="1.0" xmlns="http://www.w3.org/2000/svg"
 width="225.000000pt" height="225.000000pt" viewBox="0 0 225.000000 225.000000"
 preserveAspectRatio="xMidYMid meet">
<metadata>
Created by potrace 1.16, written by Peter Selinger 2001-2019
</metadata>
<g transform="translate(0.000000,225.000000) scale(0.100000,-0.100000)"
fill="#000000" stroke="none">
<path d="M0 1125 l0 -1125 1125 0 1125 0 0 1125 0 1125 -1125 0 -1125 0 0
-1125z m1288 796 c61 -61 183 -64 294 -7 l48 25 0 -239 0 -240 198 -3 197 -2
-201 -3 -201 -2 -7 -40 c-3 -23 -12 -59 -20 -80 l-14 -40 222 -2 221 -3 -222
-2 -222 -3 -41 -78 c-75 -146 -206 -287 -361 -393 l-60 -40 -66 47 c-157 109
-279 242 -353 386 l-41 78 -222 2 -222 3 221 2 222 3 -14 40 c-8 22 -17 57
-20 80 l-7 40 -201 2 -201 3 198 2 197 3 0 240 0 239 48 -25 c110 -57 235 -54
291 6 26 28 26 28 168 29 l141 1 30 -29z m-1008 -1277 c0 -36 4 -74 10 -84 14
-26 65 -42 97 -29 42 16 52 38 53 112 0 65 1 67 25 67 25 0 25 -1 25 -79 0
-88 -15 -118 -70 -141 -28 -11 -30 -16 -30 -61 0 -48 -1 -49 -30 -49 -29 0
-30 1 -30 48 0 44 -2 48 -38 67 -50 27 -72 74 -72 153 l0 62 30 0 30 0 0 -66z
m628 -49 l57 -115 54 115 c50 107 56 115 82 115 l29 0 0 -165 0 -165 -25 0
-25 0 -1 103 0 102 -57 -113 -57 -112 -57 112 -57 113 0 -102 -1 -103 -25 0
-25 0 0 165 0 165 25 0 c22 0 32 -15 83 -115z m-148 -106 c0 -111 -1 -119 -19
-119 -11 0 -22 4 -26 9 -3 6 -18 6 -37 0 -81 -23 -148 33 -148 122 0 33 6 47
34 75 33 33 35 33 115 32 l81 -1 0 -118z m581 105 c31 -15 59 -66 59 -104 0
-19 -6 -20 -90 -20 -49 0 -90 -4 -90 -8 0 -17 25 -32 52 -32 23 0 28 -4 28
-25 0 -22 -4 -25 -36 -25 -74 0 -123 91 -89 164 30 62 102 84 166 50z m219
-50 c0 -36 5 -74 11 -85 16 -31 55 -42 88 -24 33 17 41 39 41 118 0 54 1 57
25 57 24 0 25 -2 25 -65 0 -114 -38 -165 -122 -165 -82 0 -118 49 -118 160 0
68 1 70 25 70 24 0 25 -2 25 -66z m409 40 c38 -31 53 -82 49 -154 -3 -47 -6
-55 -24 -58 -20 -3 -22 2 -26 72 -4 87 -22 116 -73 116 -46 0 -59 -22 -65
-109 -5 -69 -7 -76 -27 -79 -23 -3 -23 -2 -23 116 l0 119 80 1 c71 1 82 -1
109 -24z"/>
<path d="M967 1875 c-15 -13 -46 -29 -70 -36 -51 -14 -161 -6 -212 15 l-37 16
4 -223 c5 -239 15 -292 76 -412 66 -132 193 -276 324 -369 l68 -48 67 48 c132
93 259 237 325 369 61 120 71 173 76 412 l4 223 -37 -16 c-51 -21 -161 -29
-212 -15 -23 6 -55 23 -71 36 -28 24 -36 25 -153 25 -117 -1 -126 -2 -152 -25z
m298 -27 c45 -32 50 -33 143 -33 53 0 110 4 125 8 l29 8 -4 -223 c-4 -193 -7
-231 -25 -278 -64 -175 -153 -287 -336 -424 l-77 -59 -96 73 c-187 143 -301
307 -335 484 -5 27 -9 134 -9 238 l0 188 28 -7 c15 -5 70 -8 124 -8 92 0 98 1
140 32 41 30 47 31 145 32 100 1 104 0 148 -31z"/>
<path d="M985 1829 c-25 -18 -63 -33 -99 -40 -54 -10 -79 -9 -159 7 l-29 6 4
-199 c4 -182 6 -205 31 -278 15 -44 45 -109 69 -145 49 -76 179 -208 261 -264
l57 -39 38 25 c131 87 259 226 316 342 52 108 66 188 66 386 l0 172 -27 -6
c-80 -16 -105 -17 -159 -7 -36 7 -76 23 -102 41 -40 28 -48 30 -135 29 -85 -1
-95 -3 -132 -30z m-25 -255 c0 -105 4 -144 16 -170 25 -52 68 -78 139 -82 50
-3 65 0 94 20 61 41 71 75 71 230 l0 138 56 0 56 0 -4 -152 c-3 -132 -7 -159
-25 -193 -29 -54 -78 -100 -135 -125 l-48 -21 0 -109 0 -110 -60 0 -59 0 -3
112 -3 111 -30 10 c-48 16 -110 65 -133 105 -37 67 -44 117 -37 249 l7 123 49
0 49 0 0 -136z"/>
</g>
</svg>
